<svg width="24" height="24" viewBox="0 0 24 24" fill="none" xmlns="http://www.w3.org/2000/svg">
<path d="M18.4717 9.32L20.855 6.72C21.2217 6.32 21.2217 5.7 20.855 5.3C20.4883 4.9 19.92 4.9 19.5533 5.3L16.84 8.26C15.3917 7.46 13.7417 7 12 7C10.24 7 8.59 7.46 7.12333 8.26L4.39167 5.3C4.025 4.9 3.45667 4.9 3.09 5.3C2.72333 5.7 2.72333 6.32 3.09 6.72L5.49167 9.34C2.77833 11.52 1 15.02 1 19H23C23 15.02 21.2217 11.5 18.4717 9.32ZM8.33333 15H6.5V13H8.33333V15ZM17.5 15H15.6667V13H17.5V15Z" fill="white"/>
</svg>
