<svg width="21" height="16" viewBox="0 0 21 16" fill="none" xmlns="http://www.w3.org/2000/svg">
<g clip-path="url(#clip0_2060_25521)">
<path d="M16.75 14.5H4.25C3.84375 14.5 3.5 14.8438 3.5 15.25C3.5 15.6562 3.84375 16 4.25 16H16.75C17.1562 16 17.5 15.6562 17.5 15.25C17.5 14.8438 17.1562 14.5 16.75 14.5ZM18.5 0H2.5C1.40625 0 0.5 0.90625 0.5 2V11C0.5 12.0938 1.40625 13 2.5 13H18.5C19.5938 13 20.5 12.0938 20.5 11V2C20.5 0.90625 19.5938 0 18.5 0ZM19 11C19 11.2812 18.7812 11.5 18.5 11.5H2.5C2.21875 11.5 2 11.2812 2 11V2C2 1.71875 2.21875 1.5 2.5 1.5H18.5C18.7812 1.5 19 1.71875 19 2V11Z" fill="#0EA960"/>
</g>
<defs>
<clipPath id="clip0_2060_25521">
<rect width="20" height="16" fill="white" transform="translate(0.5)"/>
</clipPath>
</defs>
</svg>
